<svg xmlns="http://www.w3.org/2000/svg" viewBox="0 0 800 800"><defs><linearGradient x1="NaN" y1="NaN" x2="NaN" y2="NaN" id="A"><stop stop-color="#090c08" offset="0%"/><stop stop-color="#27187d" offset="45%"/><stop stop-color="#e0ca3c" offset="100%"/></linearGradient></defs><g fill="url(#A)"><rect width="31" height="2" x="9.5" y="372" rx="1" transform="rotate(43 25 373)" opacity=".94"/><rect width="53" height="2" x="107.5" y="41" rx="1" transform="rotate(43 134 42)" opacity=".43"/><rect width="228" height="2" x="437" y="660" rx="1" transform="rotate(43 551 661)" opacity=".28"/><rect width="124" height="2" x="612" y="394" rx="1" transform="rotate(43 674 395)" opacity=".52"/><rect width="150" height="2" x="174" y="655" rx="1" transform="rotate(43 249 656)" opacity=".35"/><rect width="30" height="2" x="194" y="465" rx="1" transform="rotate(43 209 466)" opacity=".98"/><rect width="262" height="2" x="624" y="263" rx="1" transform="rotate(43 755 264)" opacity=".58"/><rect width="292" height="2" x="189" y="234" rx="1" transform="rotate(43 335 235)" opacity=".16"/><rect width="251" height="2" x="209.5" y="485" rx="1" transform="rotate(43 335 486)" opacity=".76"/><rect width="125" height="2" x="310.5" y="620" rx="1" transform="rotate(43 373 621)" opacity=".3"/><rect width="80" height="2" x="630" y="137" rx="1" transform="rotate(43 670 138)" opacity=".43"/><rect width="277" height="2" x="49.5" y="358" rx="1" transform="rotate(43 188 359)" opacity=".23"/><rect width="234" height="2" x="610" y="774" rx="1" transform="rotate(43 727 775)" opacity=".46"/><rect width="120" height="2" x="392" y="147" rx="1" transform="rotate(43 452 148)" opacity=".84"/><rect width="234" height="2" x="464" y="715" rx="1" transform="rotate(43 581 716)" opacity=".37"/><rect width="116" height="2" x="-29" y="145" rx="1" transform="rotate(43 29 146)" opacity=".66"/><rect width="208" height="2" x="45" y="318" rx="1" transform="rotate(43 149 319)" opacity=".33"/><rect width="298" height="2" x="452" y="338" rx="1" transform="rotate(43 601 339)" opacity=".35"/><rect width="286" height="2" x="513" y="253" rx="1" transform="rotate(43 656 254)" opacity=".22"/><rect width="179" height="2" x="556.5" y="23" rx="1" transform="rotate(43 646 24)" opacity=".25"/><rect width="259" height="2" x="558.5" y="746" rx="1" transform="rotate(43 688 747)" opacity=".24"/><rect width="173" height="2" x="322.5" y="457" rx="1" transform="rotate(43 409 458)" opacity=".09"/><rect width="328" height="2" x="272" y="68" rx="1" transform="rotate(43 436 69)" opacity=".59"/><rect width="88" height="2" x="204" y="29" rx="1" transform="rotate(43 248 30)" opacity=".56"/><rect width="137" height="2" x="663.5" y="709" rx="1" transform="rotate(43 732 710)" opacity=".97"/><rect width="265" height="2" x="435.5" y="483" rx="1" transform="rotate(43 568 484)" opacity=".91"/><rect width="143" height="2" x="405.5" y="484" rx="1" transform="rotate(43 477 485)" opacity=".15"/><rect width="40" height="2" x="2" y="234" rx="1" transform="rotate(43 22 235)" opacity=".63"/><rect width="230" height="2" x="86" y="699" rx="1" transform="rotate(43 201 700)" opacity=".72"/><rect width="111" height="2" x="-28.5" y="502" rx="1" transform="rotate(43 27 503)" opacity=".82"/><rect width="107" height="2" x="318.5" y="125" rx="1" transform="rotate(43 372 126)" opacity=".18"/><rect width="305" height="2" x="224.5" y="278" rx="1" transform="rotate(43 377 279)" opacity=".99"/><rect width="187" height="2" x="-45.5" y="752" rx="1" transform="rotate(43 48 753)" opacity=".16"/><rect width="198" height="2" x="462" y="586" rx="1" transform="rotate(43 561 587)" opacity=".94"/><rect width="99" height="2" x="241.5" y="168" rx="1" transform="rotate(43 291 169)" opacity=".18"/><rect width="254" height="2" x="385" y="33" rx="1" transform="rotate(43 512 34)" opacity=".72"/><rect width="66" height="2" x="586" y="650" rx="1" transform="rotate(43 619 651)" opacity=".38"/><rect width="67" height="2" x="735.5" y="326" rx="1" transform="rotate(43 769 327)" opacity=".59"/><rect width="220" height="2" x="-84" y="26" rx="1" transform="rotate(43 26 27)" opacity=".7"/><rect width="160" height="2" x="698" y="725" rx="1" transform="rotate(43 778 726)" opacity=".75"/><rect width="257" height="2" x="553.5" y="313" rx="1" transform="rotate(43 682 314)" opacity=".22"/><rect width="182" height="2" x="233" y="120" rx="1" transform="rotate(43 324 121)" opacity=".78"/><rect width="56" height="2" x="63" y="434" rx="1" transform="rotate(43 91 435)" opacity=".55"/><rect width="102" height="2" x="629" y="673" rx="1" transform="rotate(43 680 674)" opacity=".67"/><rect width="197" height="2" x="665.5" y="53" rx="1" transform="rotate(43 764 54)" opacity=".39"/><rect width="135" height="2" x="541.5" y="540" rx="1" transform="rotate(43 609 541)" opacity=".99"/><rect width="198" height="2" x="400" y="441" rx="1" transform="rotate(43 499 442)" opacity=".19"/><rect width="143" height="2" x="704.5" y="778" rx="1" transform="rotate(43 776 779)" opacity=".98"/><rect width="154" height="2" x="531" y="398" rx="1" transform="rotate(43 608 399)" opacity=".8"/><rect width="113" height="2" x="184.5" y="387" rx="1" transform="rotate(43 241 388)" opacity=".77"/><rect width="267" height="2" x="130.5" y="348" rx="1" transform="rotate(43 264 349)" opacity=".85"/><rect width="37" height="2" x="259.5" y="554" rx="1" transform="rotate(43 278 555)" opacity=".43"/><rect width="354" height="2" x="589" y="522" rx="1" transform="rotate(43 766 523)" opacity=".74"/><rect width="209" height="2" x="433.5" y="153" rx="1" transform="rotate(43 538 154)" opacity=".2"/><rect width="244" height="2" x="512" y="734" rx="1" transform="rotate(43 634 735)" opacity=".21"/><rect width="81" height="2" x="442.5" y="198" rx="1" transform="rotate(43 483 199)" opacity=".55"/><rect width="54" height="2" x="297" y="625" rx="1" transform="rotate(43 324 626)" opacity=".3"/><rect width="224" height="2" x="632" y="378" rx="1" transform="rotate(43 744 379)" opacity=".44"/><rect width="320" height="2" x="601" y="595" rx="1" transform="rotate(43 761 596)" opacity=".74"/><rect width="299" height="2" x="200.5" y="557" rx="1" transform="rotate(43 350 558)" opacity=".11"/><rect width="195" height="2" x="4.5" y="544" rx="1" transform="rotate(43 102 545)" opacity=".2"/><rect width="343" height="2" x="160.5" y="683" rx="1" transform="rotate(43 332 684)" opacity=".31"/><rect width="110" height="2" x="418" y="383" rx="1" transform="rotate(43 473 384)" opacity=".94"/><rect width="223" height="2" x="157.5" y="230" rx="1" transform="rotate(43 269 231)" opacity=".98"/><rect width="236" height="2" x="309" y="593" rx="1" transform="rotate(43 427 594)" opacity=".79"/><rect width="87" height="2" x="389.5" y="252" rx="1" transform="rotate(43 433 253)" opacity=".79"/><rect width="84" height="2" x="-9" y="580" rx="1" transform="rotate(43 33 581)" opacity=".86"/><rect width="108" height="2" x="167" y="102" rx="1" transform="rotate(43 221 103)" opacity=".55"/><rect width="190" height="2" x="119" y="502" rx="1" transform="rotate(43 214 503)" opacity=".47"/><rect width="449" height="2" x="-100.5" y="705" rx="1" transform="rotate(43 124 706)" opacity=".36"/><rect width="192" height="2" x="324" y="406" rx="1" transform="rotate(43 420 407)" opacity=".74"/><rect width="100" height="2" x="112" y="769" rx="1" transform="rotate(43 162 770)" opacity=".6"/><rect width="39" height="2" x="108.5" y="256" rx="1" transform="rotate(43 128 257)" opacity=".55"/><rect width="216" height="2" x="168" y="508" rx="1" transform="rotate(43 276 509)" opacity=".07"/><rect width="201" height="2" x="196.5" y="289" rx="1" transform="rotate(43 297 290)" opacity=".88"/><rect width="234" height="2" x="458" y="775" rx="1" transform="rotate(43 575 776)" opacity=".48"/><rect width="199" height="2" x="666.5" y="200" rx="1" transform="rotate(43 766 201)" opacity=".7"/><rect width="49" height="2" x="461.5" y="306" rx="1" transform="rotate(43 486 307)" opacity=".39"/><rect width="230" height="2" x="75" y="602" rx="1" transform="rotate(43 190 603)" opacity=".5"/><rect width="273" height="2" x="259.5" y="28" rx="1" transform="rotate(43 396 29)" opacity=".86"/><rect width="139" height="2" x="409.5" y="564" rx="1" transform="rotate(43 479 565)" opacity=".72"/><rect width="280" height="2" x="189" y="766" rx="1" transform="rotate(43 329 767)" opacity=".89"/><rect width="244" height="2" x="389" y="523" rx="1" transform="rotate(43 511 524)" opacity=".81"/><rect width="305" height="2" x="425.5" y="271" rx="1" transform="rotate(43 578 272)" opacity=".27"/><rect width="160" height="2" x="467" y="413" rx="1" transform="rotate(43 547 414)" opacity=".59"/><rect width="147" height="2" x="578.5" y="781" rx="1" transform="rotate(43 652 782)" opacity=".13"/><rect width="178" height="2" x="314" y="115" rx="1" transform="rotate(43 403 116)" opacity=".19"/><rect width="114" height="2" x="347" y="518" rx="1" transform="rotate(43 404 519)" opacity=".16"/><rect width="204" height="2" x="427" y="345" rx="1" transform="rotate(43 529 346)" opacity=".08"/><rect width="187" height="2" x="601.5" y="534" rx="1" transform="rotate(43 695 535)" opacity=".76"/><rect width="314" height="2" x="123" y="718" rx="1" transform="rotate(43 280 719)" opacity=".28"/><rect width="112" height="2" x="165" y="179" rx="1" transform="rotate(43 221 180)" opacity=".35"/><rect width="82" height="2" x="713" y="654" rx="1" transform="rotate(43 754 655)" opacity=".83"/><rect width="326" height="2" x="232" y="194" rx="1" transform="rotate(43 395 195)" opacity=".93"/><rect width="96" height="2" x="654" y="197" rx="1" transform="rotate(43 702 198)" opacity=".21"/><rect width="277" height="2" x="-57.5" y="37" rx="1" transform="rotate(43 81 38)" opacity=".85"/><rect width="323" height="2" x="-76.5" y="359" rx="1" transform="rotate(43 85 360)" opacity=".6"/><rect width="227" height="2" x="504.5" y="98" rx="1" transform="rotate(43 618 99)" opacity=".24"/><rect width="242" height="2" x="301" y="774" rx="1" transform="rotate(43 422 775)" opacity=".93"/><rect width="130" height="2" x="66" y="617" rx="1" transform="rotate(43 131 618)" opacity=".82"/><rect width="145" height="2" x="492.5" y="98" rx="1" transform="rotate(43 565 99)" opacity=".67"/><rect width="316" height="2" x="-17" y="491" rx="1" transform="rotate(43 141 492)" opacity=".52"/><rect width="146" height="2" x="520" y="37" rx="1" transform="rotate(43 593 38)" opacity=".61"/><rect width="46" height="2" x="223" y="770" rx="1" transform="rotate(43 246 771)" opacity=".69"/><rect width="198" height="2" x="458" y="209" rx="1" transform="rotate(43 557 210)" opacity=".31"/><rect width="247" height="2" x="193.5" y="29" rx="1" transform="rotate(43 317 30)" opacity=".18"/><rect width="182" height="2" x="669" y="131" rx="1" transform="rotate(43 760 132)" opacity=".49"/><rect width="119" height="2" x="263.5" y="338" rx="1" transform="rotate(43 323 339)" opacity=".34"/><rect width="218" height="2" x="393" y="107" rx="1" transform="rotate(43 502 108)" opacity=".46"/><rect width="183" height="2" x="22.5" y="119" rx="1" transform="rotate(43 114 120)" opacity=".51"/><rect width="209" height="2" x="396.5" y="254" rx="1" transform="rotate(43 501 255)" opacity=".51"/><rect width="119" height="2" x="610.5" y="596" rx="1" transform="rotate(43 670 597)" opacity=".57"/><rect width="218" height="2" x="141" y="598" rx="1" transform="rotate(43 250 599)" opacity=".59"/><rect width="256" height="2" x="-91" y="84" rx="1" transform="rotate(43 37 85)" opacity=".83"/><rect width="209" height="2" x="200.5" y="84" rx="1" transform="rotate(43 305 85)" opacity=".88"/><rect width="139" height="2" x="613.5" y="85" rx="1" transform="rotate(43 683 86)" opacity=".48"/><rect width="140" height="2" x="275" y="166" rx="1" transform="rotate(43 345 167)" opacity=".67"/><rect width="309" height="2" x="478.5" y="191" rx="1" transform="rotate(43 633 192)" opacity=".58"/><rect width="146" height="2" x="-29" y="453" rx="1" transform="rotate(43 44 454)" opacity=".11"/><rect width="167" height="2" x="379.5" y="690" rx="1" transform="rotate(43 463 691)" opacity=".82"/><rect width="37" height="2" x="736.5" y="447" rx="1" transform="rotate(43 755 448)" opacity=".51"/><rect width="143" height="2" x="113.5" y="42" rx="1" transform="rotate(43 185 43)" opacity=".92"/><rect width="53" height="2" x="4.5" y="292" rx="1" transform="rotate(43 31 293)" opacity=".37"/><rect width="254" height="2" x="27" y="188" rx="1" transform="rotate(43 154 189)" opacity=".09"/><rect width="287" height="2" x="534.5" y="474" rx="1" transform="rotate(43 678 475)" opacity=".74"/><rect width="54" height="2" x="172" y="421" rx="1" transform="rotate(43 199 422)" opacity=".25"/><rect width="39" height="2" x="242.5" y="447" rx="1" transform="rotate(43 262 448)" opacity=".14"/><rect width="114" height="2" x="85" y="410" rx="1" transform="rotate(43 142 411)" opacity=".96"/><rect width="69" height="2" x="263.5" y="601" rx="1" transform="rotate(43 298 602)" opacity=".33"/><rect width="115" height="2" x="-5.5" y="656" rx="1" transform="rotate(43 52 657)" opacity=".44"/><rect width="229" height="2" x="-45.5" y="197" rx="1" transform="rotate(43 69 198)" opacity=".13"/><rect width="222" height="2" x="202" y="421" rx="1" transform="rotate(43 313 422)" opacity=".44"/><rect width="162" height="2" x="120" y="544" rx="1" transform="rotate(43 201 545)" opacity=".92"/><rect width="210" height="2" x="520" y="456" rx="1" transform="rotate(43 625 457)" opacity=".97"/><rect width="163" height="2" x="-1.5" y="289" rx="1" transform="rotate(43 80 290)" opacity=".28"/><rect width="405" height="2" x="13.5" y="278" rx="1" transform="rotate(43 216 279)" opacity=".89"/><rect width="230" height="2" x="478" y="160" rx="1" transform="rotate(43 593 161)" opacity=".92"/><rect width="80" height="2" x="455" y="632" rx="1" transform="rotate(43 495 633)" opacity=".13"/><rect width="166" height="2" x="320" y="665" rx="1" transform="rotate(43 403 666)" opacity=".13"/><rect width="196" height="2" x="407" y="750" rx="1" transform="rotate(43 505 751)" opacity=".79"/><rect width="235" height="2" x="302.5" y="332" rx="1" transform="rotate(43 420 333)" opacity=".31"/><rect width="132" height="2" x="328" y="727" rx="1" transform="rotate(43 394 728)"/><rect width="248" height="2" x="586" y="26" rx="1" transform="rotate(43 710 27)" opacity=".23"/><rect width="274" height="2" x="226" y="379" rx="1" transform="rotate(43 363 380)" opacity=".42"/></g></svg>