<svg xmlns="http://www.w3.org/2000/svg" width="64" height="64" viewBox="0 0 48 48" preserveAspectRatio="xMidYMid" xmlns:v="https://vecta.io/nano"><path d="M24.062 0C16.375-.006 8.675 1.706 5.189 5.151c-6.973 6.891-6.863 30.623 0 37.648s30.801 6.845 37.664 0 6.863-30.802 0-37.648C39.421 1.728 31.748.006 24.062 0zm6.756 10.636c1.804.014 3.674.415 5.036 1.234 7.227 4.241 6.582 20.523 0 24.877-4.279 2.572-10.87 1.287-10.87-1.795 0-2.521.43-3.273 4.304-3.273h3.787v-7.37-7.361h-3.787c-3.874 0-4.304-.762-4.304-3.283 0-1.996 2.827-3.052 5.834-3.029zm-21.977.228h6.996c6.726 0 6.994.112 6.994 2.801 0 2.521-.43 3.283-4.304 3.283h-3.643v7.361 7.37h3.643c3.874 0 4.304.752 4.304 3.273 0 2.689-.268 2.802-6.994 2.802H8.841V24.309z"/></svg>