<svg xmlns="http://www.w3.org/2000/svg" version="1.1" xmlns:xlink="http://www.w3.org/1999/xlink" viewBox="0 0 800 800" opacity="1"><defs><linearGradient x1="50%" y1="0%" x2="50%" y2="100%" id="uundulate-grad"><stop stop-color="hsl(30, 100%, 50%)" stop-opacity="1" offset="45%"></stop><stop stop-color="hsl(30, 100%, 70%)" stop-opacity="1" offset="100%"></stop></linearGradient></defs><g stroke-width="2" stroke="url(#uundulate-grad)" fill="none"><path d="M841.6722414155847 137.4111033992566C970.2618387954194 334.4650837025953 909.8006813605534 691.9199730555579 723.5575106292567 835.7220490616075C537.3143398979599 979.524125067657 76.29461928519481 1024.7150485316351 -52.29497809463993 827.6610682282965C-180.88457547447467 630.6070879249578 -79.91572752524792 33.66501961162999 106.32744320604888 -110.13705639441957C292.57061393734557 -253.9391324004692 713.08264403575 -59.64287690408207 841.6722414155847 137.4111033992566C970.2618387954194 334.4650837025953 909.8006813605534 691.9199730555579 723.5575106292567 835.7220490616075 "></path><path d="M828.6818804763739 145.13427392772508C953.489430874449 336.3925489280243 894.8065427759025 683.3340591823705 714.0411123602321 822.9066623647127C533.2756819445618 962.4792655470549 85.81536487923086 1006.3410442032689 -38.992185518843996 815.0827692029698C-163.7997359169189 623.8244942026704 -65.80055996619876 44.439545545616966 114.96487044947162 -95.13305763672525C295.730300865142 -234.70566081906753 703.874330078299 -46.124001072574174 828.6818804763739 145.13427392772508C953.489430874449 336.3925489280243 894.8065427759025 683.3340591823705 714.0411123602321 822.9066623647127 "></path><path d="M815.6915195371632 152.85756652650616C936.7170229534784 338.3201362237661 879.8124041912515 674.7482673794957 704.5247140912074 810.0913977381306C529.2370239911636 945.4345280967655 95.33611047326701 987.9671619452154 -25.689392943048063 802.5045922479555C-146.71489635936314 617.0420225506955 -51.68539240714966 55.214193549916445 123.60229769289435 -80.12893680871844C298.8899877929383 -215.47206716735337 694.6660161208483 -32.60500317075372 815.6915195371632 152.85756652650616C936.7170229534784 338.3201362237661 879.8124041912515 674.7482673794957 704.5247140912074 810.0913977381306 "></path><path d="M802.7011585979526 160.58070653739662C919.944615032508 340.24757093161713 864.8182656066006 666.16232298873 695.008315822183 797.2759805236578C525.1983660377655 928.3896380585852 104.85685606730306 969.5931270992712 -12.386600367252129 789.9262627050507C-129.63005680180737 610.25939831083 -37.570224848100565 65.9886889663253 132.2397249363171 -65.12496856860224C302.04967472073463 -196.23862610352984 685.4577021633975 -19.08615785682389 802.7011585979526 160.58070653739662C919.944615032508 340.24757093161713 864.8182656066006 666.16232298873 695.008315822183 797.2759805236578 "></path><path d="M789.7108586938984 168.30393810102146C903.1722681466936 342.17509719220266 849.8241880571061 657.5764701506992 685.4919785883149 784.4606548619195C521.1597691195235 911.3448395731393 114.37766269649546 951.2191838060612 0.916253243700055 777.34802471488C-112.5451562090953 603.4768656236988 -23.454996253895217 76.76327593546853 140.87721321489607 -50.12090877575167C305.2094226836873 -177.00509348697187 676.2494492411029 -5.56722099015974 789.7108586938984 168.30393810102146C903.1722681466936 342.17509719220266 849.8241880571061 657.5764701506992 685.4919785883149 784.4606548619195 "></path><path d="M776.7204367195313 176.02710862948993C886.3997991905669 344.1025624176318 834.8299884372989 648.9905562775116 675.975519284134 771.6452681650244C517.121050130969 894.2999800525374 123.89834725537526 932.8451794776952 14.218984784339739 764.7697256895533C-95.46037768669578 596.6942719014114 -9.339889730002312 87.5378018694555 149.51457942316256 -35.116910018057354C308.3690485763274 -157.7716219055702 667.041074248496 7.951654841348159 776.7204367195313 176.02710862948993C886.3997991905669 344.1025624176318 834.8299884372989 648.9905562775116 675.975519284134 771.6452681650244 "></path><path d="M763.7300757803207 183.75034019311477C869.6273912695963 346.0300886782172 819.8358498526477 640.4047034394805 666.4591210151093 758.829942503286C513.0823921775709 877.2551815670918 133.41909284941136 914.4712361844852 27.521777360135673 752.1914876993828C-78.37553812914001 589.9117392142804 4.775277829046786 98.31238883859874 158.1520066665853 -20.112850225206785C311.5287355041237 -138.5380892890123 657.832760291045 21.470591708012364 763.7300757803207 183.75034019311477C869.6273912695963 346.0300886782172 819.8358498526477 640.4047034394805 666.4591210151093 758.829942503286 "></path><path d="M750.7397758762663 191.4735717567396C852.8550443837821 347.95761493880264 804.841772303153 631.8188506014494 656.942783781241 746.0146168415476C509.04379525932893 860.2103830816459 142.9398994786037 896.0972928912756 40.824630971087856 739.6132497092126C-61.290637536427994 583.1292065271493 18.890506423252134 109.08697580774202 166.78949494516428 -5.108790432356159C314.68848346707637 -119.3045566724544 648.6245073687504 34.98952857467657 750.7397758762663 191.4735717567396C852.8550443837821 347.95761493880264 804.841772303153 631.8188506014494 656.942783781241 746.0146168415476 "></path><path d="M737.7494149370555 199.1967422852082C836.0826364628115 349.8850801642318 789.8476337185023 623.2329367282621 647.4263855122166 733.199230144653C505.0051373059308 843.1655235610438 152.4606450726398 877.7232885629094 54.12742354688379 727.0349506838857C-44.20579797887217 576.3466128048619 33.00567398230123 119.86150174172906 175.426922188587 9.89520832533816C317.8481703948728 -100.07108509105274 639.4161934112996 48.50840440618447 737.7494149370555 199.1967422852082C836.0826364628115 349.8850801642318 789.8476337185023 623.2329367282621 647.4263855122166 733.199230144653 "></path><path d="M724.7589929626888 206.91991281367677C819.3101675066848 351.81254538966095 774.8534340986951 614.6470228550747 637.9099262080357 720.3838434477584C500.96641831737634 826.1206640404419 161.98132963151966 859.3492842345431 67.43015508752347 714.4566516585589C-27.121019456472652 569.5640190825746 47.12078050619408 130.63602767571604 184.0642883968535 24.89920708303248C321.00779628751286 -80.83761350965108 630.2078184186926 62.02728023769242 724.7589929626888 206.91991281367677C819.3101675066848 351.81254538966095 774.8534340986951 614.6470228550747 637.9099262080357 720.3838434477584 "></path><path d="M711.7686320234781 214.6431443773015C802.5377595857144 353.74007165024636 759.8592955140443 606.0611700170435 628.3935279390112 707.5685177860196C496.9277603639781 809.075865554996 171.5020752255557 840.9753409413333 80.73294766331941 701.8784136683885C-10.036179898916885 562.7814863954435 61.235948065243235 141.41061464485927 192.70171564027623 39.90326687588305C324.1674832153092 -61.60408089309317 620.9995044612417 75.54621710435657 711.7686320234781 214.6431443773015C802.5377595857144 353.74007165024636 759.8592955140443 606.0611700170435 628.3935279390112 707.5685177860196 "></path><path d="M698.7782710842673 222.36637594092633C785.7653516647438 355.6675979108319 744.8651569293934 597.4753171790124 618.8771296699866 694.7531921242812C492.88910241058 792.0310670695503 181.0228208195918 822.6013976481236 94.03574023911534 689.3001756782179C7.048659658638883 555.9989537083123 75.35111562429233 152.1852016140025 201.33914288369897 54.90732666873362C327.3271701431056 -42.3705482765352 611.7911905037909 89.06515397102078 698.7782710842673 222.36637594092633C785.7653516647438 355.6675979108319 744.8651569293934 597.4753171790124 618.8771296699866 694.7531921242812 "></path><path d="M685.7879406626348 230.08954646939492C768.9929742613513 357.59506313626116 729.8710488623204 588.8894033058251 609.3607619185401 681.9378054273866C488.8504749747599 774.9862075489482 190.54359693120603 804.2273933197575 107.3385633324894 676.7218766528912C24.133529733772832 549.216359986025 89.46631370091956 162.95972754798947 209.97660064469983 69.91132542642794C330.48688758848004 -23.137076695133544 602.5829070639181 102.58402980252868 685.7879406626348 230.08954646939492C768.9929742613513 357.59506313626116 729.8710488623204 588.8894033058251 609.3607619185401 681.9378054273866 "></path><path d="M672.7975797234241 237.81277803301964C752.2205663403809 359.52258939684657 714.8769102776696 580.303550467794 599.8443636495157 669.1224797656482C484.8118170213618 757.9414090635023 200.06434252524213 785.8534500265478 120.64135590828533 664.1436386627208C41.2183692913286 542.4338272988939 103.58148125996865 173.7343145171327 218.61402788812256 84.9153852192785C333.64657451627636 -3.903544078575635 593.3745931064673 116.10296666919288 672.7975797234241 237.81277803301964C752.2205663403809 359.52258939684657 714.8769102776696 580.303550467794 599.8443636495157 669.1224797656482 "></path><path d="M659.8072187842134 245.53594856148823C735.4481584194103 361.45005462227573 699.8827716930185 571.7176365946066 590.3279653804912 656.3070930687535C480.77315906796366 740.8965495429002 209.58508811927823 767.4794456981813 133.94414848408127 651.565339637394C58.30320884888437 535.6512335766065 117.69664881901781 184.50884045111968 227.2514551315453 99.91938397697282C336.8062614440728 15.329927502826024 584.1662791490165 129.62184250070078 659.8072187842134 245.53594856148823C735.4481584194103 361.45005462227573 699.8827716930185 571.7176365946066 590.3279653804912 656.3070930687535 "></path><path d="M646.8168578450028 253.25918012511306C718.6757504984398 363.37758088286114 684.8886331083677 563.1317837565755 580.8115671114665 643.4917674070149C476.7345011145653 723.8517510574544 219.10583371331427 749.1055024049716 147.2469410598772 638.9871016472235C75.38804840644013 528.8687008894753 131.8118163780669 195.2834274202629 235.88888237496803 114.92344376982345C339.9659483718692 34.56346011938393 574.9579651915657 143.14077936736498 646.8168578450028 253.25918012511306C718.6757504984398 363.37758088286114 684.8886331083677 563.1317837565755 580.8115671114665 643.4917674070149 "></path><path d="M633.826496905792 260.98235065358165C701.9033425774693 365.3050461082903 669.8944945237167 554.5458698833881 571.2951688424421 630.6763807101203C472.6958431611672 706.8068915368524 228.62657930735037 730.7314980766055 160.54973363567314 626.4088026218968C92.47288796399596 522.0861071671881 145.926983937116 206.0579533542499 244.52630961839077 129.92744252751777C343.12563529966553 53.79693170078559 565.7496512341149 156.65965519887288 633.826496905792 260.98235065358165C701.9033425774693 365.3050461082903 669.8944945237167 554.5458698833881 571.2951688424421 630.6763807101203 "></path><path d="M620.8361359665814 268.7055516996283C685.1309346564988 367.2325418512976 654.9003559390658 545.9599865277789 561.7787705734174 617.8610245308038C468.6571852077691 689.7620625338285 238.14732490138647 712.3575242658176 173.85252621146913 613.8305341141482C109.55772752155173 515.3035439624789 160.0421514961651 216.832509805815 253.1637368618135 144.9314718027902C346.28532222746185 73.03043379976538 556.5413372766641 170.17856154795896 620.8361359665814 268.7055516996283C685.1309346564988 367.2325418512976 654.9003559390658 545.9599865277789 561.7787705734174 617.8610245308038 "></path><path d="M607.8457750273707 276.42875274567496C668.3585267355282 369.16003759430487 639.9062173544148 537.3741031721697 552.2623723043928 605.0456683514872C464.61852725437086 672.7172335308046 247.66807049542257 693.9835504550296 187.15531878726506 601.2522656063996C126.6425670791075 508.5209807577696 174.1573190552142 227.6070662573801 261.80116410523624 159.93550107806266C349.4450091552583 92.26393589874522 547.3330233192132 183.69746789704504 607.8457750273707 276.42875274567496C668.3585267355282 369.16003759430487 639.9062173544148 537.3741031721697 552.2623723043928 605.0456683514872 "></path><path d="M594.8554140881602 284.15195379172167C651.5861188145577 371.08753333731227 624.912078769764 528.7882198165605 542.7459740353684 592.2303121721707C460.57986930097263 655.6724045277806 257.18881608945867 675.6095766442415 200.458111363061 588.673997098651C143.72740663666326 501.73841755306034 188.27248661426336 238.3816227089452 270.438591348659 174.9395303533351C352.6046960830546 111.497437997725 538.1247093617624 197.21637424613107 594.8554140881602 284.15195379172167C651.5861188145577 371.08753333731227 624.912078769764 528.7882198165605 542.7459740353684 592.2303121721707 "></path><path d="M581.8650531489494 291.8751548377683C634.8137108935872 373.01502908031955 609.9179401851129 520.2023364609512 533.2295757663437 579.414955992854C456.5412113475745 638.6275755247568 266.7095616834947 657.2356028334535 213.76090393885693 576.0957285909024C160.81224619421909 494.95585434835107 202.38765417331246 249.1561791605103 279.0760185920817 189.94355962860755C355.7643830108509 130.73094009670478 528.9163954043115 210.7352805952171 581.8650531489494 291.8751548377683C634.8137108935872 373.01502908031955 609.9179401851129 520.2023364609512 533.2295757663437 579.414955992854 "></path><path d="M568.8746922097387 299.59834062502597C618.0413029726167 374.9425095645378 594.9238016004621 511.6164378465529 523.7131774973193 566.5995845547484C452.5025533941764 621.5827312629438 276.23030727753087 638.8616137638766 227.06369651465286 563.5174448243647C177.89708575177485 488.17327588485284 216.50282173236155 259.9307203532864 287.71344583550444 204.94757364509093C358.92406993864734 149.9644269368955 519.7080814468607 224.2541716855141 568.8746922097387 299.59834062502597C618.0413029726167 374.9425095645378 594.9238016004621 511.6164378465529 523.7131774973193 566.5995845547484 "></path><path d="M555.884331270528 307.32157218865075C601.2688950516463 376.8700358251232 579.9296630158112 503.0305850085217 514.1967792282946 553.7842588930098C448.46389544077806 604.537932777498 285.7510528715669 620.4876704706667 240.3664890904488 550.9392068341942C194.98192530933062 481.3907431977218 230.61798929141065 270.70530732242963 296.3508730789272 219.9516334379415C362.08375686644365 169.19795955345342 510.4997674894099 237.77310855217831 555.884331270528 307.32157218865075C601.2688950516463 376.8700358251232 579.9296630158112 503.0305850085217 514.1967792282946 553.7842588930098 "></path><path d="M542.8939703313174 315.04477323469746C584.4964871306756 378.7975315681306 564.9355244311603 494.4447016529125 504.68038095927 540.9689027136933C444.42523748737995 587.4931037744741 295.271798465603 602.1136966598788 253.66928166624473 538.3609383264456C212.0667648668864 474.6081799930125 244.7331568504598 281.47986377399474 304.9883003223499 234.955662713214C365.24344379424 188.4314616524332 501.29145353195906 251.29201490126434 542.8939703313174 315.04477323469746C584.4964871306756 378.7975315681306 564.9355244311603 494.4447016529125 504.68038095927 540.9689027136933 "></path><path d="M529.9036093921068 322.7679742807441C567.7240792097052 380.72502731113786 549.9413858465093 485.8588182973033 495.1639826902456 528.1535465343768C440.38657953398183 570.4482747714501 304.7925440596391 583.7397228490906 266.97207424204066 525.7826698186971C229.1516044244422 467.82561678830325 258.8483244095089 292.25442022555984 313.62572756577265 249.95969198848644C368.4031307220364 207.66496375141304 492.0831395745083 264.8109212503504 529.9036093921068 322.7679742807441C567.7240792097052 380.72502731113786 549.9413858465093 485.8588182973033 495.1639826902456 528.1535465343768 "></path><path d="M516.913248452896 330.4911753267908C550.9516712887346 382.65252305414515 534.9472472618584 477.2729349416941 485.64758442122104 515.3381903550601C436.3479215805836 553.4034457684262 314.3132896536752 565.3657490383027 280.2748668178366 513.2044013109485C246.23644398199798 461.043053583594 272.963491968558 303.02897667712494 322.2631548091954 264.9637212637589C371.56281764983277 226.89846585039282 482.87482561705747 278.32982759943644 516.913248452896 330.4911753267908C550.9516712887346 382.65252305414515 534.9472472618584 477.2729349416941 485.64758442122104 515.3381903550601 "></path><path d="M503.9228875136853 338.2143763728375C534.1792633677642 384.58001879715243 519.9531086772074 468.68705158608486 476.1311861521964 502.5228341757436C432.30926362718543 536.3586167654023 323.8340352477113 546.9917752275148 293.57765939363253 500.6261328031999C263.32128353955375 454.2604903788848 287.0786595276071 313.80353312869005 330.9005820526181 279.96775053903133C374.72250457762914 246.1319679493726 473.6665116596066 291.8487339485225 503.9228875136853 338.2143763728375C534.1792633677642 384.58001879715243 519.9531086772074 468.68705158608486 476.1311861521964 502.5228341757436 "></path><path d="M490.93252657447465 345.9375774188842C517.4068554467935 386.5075145401598 504.95897009255646 460.10116823047565 466.61478788317186 489.707477996427C428.27060567378726 519.3137877623784 333.35478084174736 528.6178014167267 306.88045196942846 488.0478642954512C280.4061230971095 447.47792717417553 301.1938270866562 324.57808958025515 339.53800929604085 294.9717798143038C377.88219150542545 265.3654700483524 464.45819770215576 305.36764029760855 490.93252657447465 345.9375774188842C517.4068554467935 386.5075145401598 504.95897009255646 460.10116823047565 466.61478788317186 489.707477996427 "></path><path d="M477.942165635264 353.6607632061418C500.63444752582313 388.434995024378 489.9648315079056 451.51526961607726 457.0983896141473 476.8921065583213C424.23194772038903 502.26894350056546 342.87552643578346 510.24381234714974 320.1832445452244 475.4695805289135C297.49096265466534 440.6953487106773 315.30899464570535 335.3526307730312 348.1754365394636 309.97579383078715C381.0418784332218 284.5989568885431 455.24988374470496 318.88653138790556 477.942165635264 353.6607632061418C500.63444752582313 388.434995024378 489.9648315079056 451.51526961607726 457.0983896141473 476.8921065583213 "></path><path d="M464.9518046960534 361.3840100285556C483.8620396048526 390.3625365437525 474.97069292325466 442.92943203683524 447.5819913451228 464.076796155372C420.1932897669909 485.22416027390864 352.39627202981956 491.8698843127289 333.48603712102033 462.8913577975321C314.5758022122211 433.9128312823352 329.42416220475445 346.1272330009635 356.8128637828863 324.9798688824268C384.2015653610182 303.8325047638901 446.04156978725416 332.4054835133588 464.9518046960534 361.3840100285556C483.8620396048526 390.3625365437525 474.97069292325466 442.92943203683524 447.5819913451228 464.076796155372 "></path><path d="M451.96144375684264 369.10719581581327C467.0896316838821 392.29001702797075 459.9765543386037 434.34353342243696 438.0655930760982 451.2614247172663C416.1546318135927 468.1793160120957 361.91701762385566 473.49589524315195 346.78882969681626 450.31307403099447C331.6606417697769 427.13025281883694 343.53932976380355 356.9017741937396 365.45029102630906 339.98388289891017C387.36125228881457 323.0659916040808 436.8332558298033 345.9243746036558 451.96144375684264 369.10719581581327C467.0896316838821 392.29001702797075 459.9765543386037 434.34353342243696 438.0655930760982 451.2614247172663 "></path><path d="M438.971082817632 376.8303816030709C450.31722376291157 394.217497512189 444.9824157539528 425.75763480803863 428.54919480707366 438.44605327916065C412.1159738601945 451.1344717502827 371.43776321789176 455.12190617357487 360.0916222726122 437.73479026445676C348.74548132733264 420.34767435533865 357.65449732285265 367.6763153865156 374.0877182697318 354.9878969153936C390.52093921661094 342.2994784442716 427.62494187235245 359.44326569395275 438.971082817632 376.8303816030709C450.31722376291157 394.217497512189 444.9824157539528 425.75763480803863 428.54919480707366 438.44605327916065 "></path><path d="M425.9807218784213 384.55359790790664C433.54481584194104 396.1450085139854 429.98827716930185 417.1717667112185 419.0327965380491 425.63071235863316C408.07731590679634 434.08965800604784 380.9585088119278 436.747947621576 373.39441484840813 425.15653701549724C365.83032088488847 413.5651264094185 371.7696648819018 378.4508870968698 382.72514551315453 369.9919414494551C393.68062614440726 361.53299580204043 418.41662791490165 372.9621873018279 425.9807218784213 384.55359790790664C433.54481584194104 396.1450085139854 429.98827716930185 417.1717667112185 419.0327965380491 425.63071235863316 "></path><path d="M412.9903609392107 392.27679895395335C416.7724079209705 398.0725042569927 414.99413858465095 408.5858833556092 409.51639826902453 412.8153561793166C404.0386579533982 417.0448290030239 390.4792544059639 418.37397381078796 386.69720742420407 412.5782685077486C382.91516044244423 406.7825632047092 385.8848324409509 389.2254435484349 391.36257275657726 384.99597072472756C396.8403130722036 380.7664979010202 409.20831395745086 386.4810936509139 412.9903609392107 392.27679895395335C416.7724079209705 398.0725042569927 414.99413858465095 408.5858833556092 409.51639826902453 412.8153561793166 "></path></g></svg>